<?xml version="1.0" encoding="UTF-8"?>
<svg version="1.1" xmlns="http://www.w3.org/2000/svg" width="5001" height="3334">
<path d="M0 0 C1650.33 0 3300.66 0 5001 0 C5001 1100.22 5001 2200.44 5001 3334 C3350.67 3334 1700.34 3334 0 3334 C0 2233.78 0 1133.56 0 0 Z " fill="#FCFDFC" transform="translate(0,0)"/>
<path d="M0 0 C680.46 0 1360.92 0 2062 0 C2062 578.16 2062 1156.32 2062 1752 C2057.62985032 1748.25415742 2053.53899499 1744.66374762 2049.50030613 1740.62335396 C2048.99078223 1740.11498391 2048.48125834 1739.60661386 2047.95629433 1739.08283865 C2046.26280747 1737.3919823 2044.5728882 1735.69760669 2042.88294983 1734.00320435 C2041.65205599 1732.77274694 2040.42094227 1731.54250945 2039.18962854 1730.31247222 C2035.81692851 1726.94200301 2032.44734576 1723.56843247 2029.0782727 1720.19433832 C2025.44077428 1716.55251528 2021.80038001 1712.91358898 2018.16033936 1709.27430725 C2011.85749038 1702.97198223 2005.55647269 1696.6678311 1999.25670052 1690.36243057 C1990.14832082 1681.24591856 1981.03717606 1672.13217412 1971.92535739 1663.01909946 C1957.14155901 1648.23311328 1942.35999446 1633.44489603 1927.57983398 1618.65527344 C1913.22358479 1604.28984308 1898.86628409 1589.92546499 1884.50756836 1575.5625 C1883.62226974 1574.67693865 1882.73697112 1573.79137731 1881.82484526 1572.87898077 C1877.38348775 1568.43631821 1872.94210956 1563.99367632 1868.5007211 1559.5510447 C1831.66394124 1522.70390072 1794.83078627 1485.85313484 1758 1449 C1758.45985848 1447.58392916 1758.92294562 1446.16890661 1759.38734436 1444.75431824 C1759.64487016 1443.96621356 1759.90239595 1443.17810888 1760.16772556 1442.36612225 C1761.45254668 1438.71342826 1763.10441712 1435.27306227 1764.80859375 1431.80078125 C1765.17133896 1431.05173523 1765.53408417 1430.30268921 1765.90782166 1429.53094482 C1767.07781574 1427.12153161 1768.25687866 1424.71672167 1769.4375 1422.3125 C1769.84083557 1421.4870871 1770.24417114 1420.66167419 1770.659729 1419.81124878 C1776.6682891 1407.52206814 1782.90988977 1395.40573848 1789.61865234 1383.48193359 C1791.04137318 1380.92566283 1792.42553871 1378.35162902 1793.80078125 1375.76953125 C1801.0716346 1362.15108785 1808.95832049 1348.95472382 1817.04638672 1335.81242371 C1819.0170221 1332.60924199 1820.96995157 1329.39669016 1822.8984375 1326.16796875 C1839.07636605 1299.14556199 1857.49223631 1273.45586103 1876 1248 C1870.16972625 1240.86058791 1863.59688694 1234.45954148 1857.08016396 1227.95711613 C1855.74272435 1226.61893646 1854.40550428 1225.28053736 1853.06848353 1223.9419392 C1849.38584098 1220.25622802 1845.70008379 1216.57364527 1842.01382128 1212.89155508 C1838.00709695 1208.88826478 1834.00327564 1204.88207287 1829.99908864 1200.87624496 C1822.9783505 1193.85343237 1815.9557544 1186.83248197 1808.9319458 1179.81274033 C1801.39621365 1172.28135944 1793.86154743 1164.74891442 1786.328228 1157.21512032 C1785.85230199 1156.73916562 1785.37637598 1156.26321091 1784.88602797 1155.77283334 C1782.45925708 1153.34590607 1780.03250397 1150.91896102 1777.60575714 1148.49200968 C1760.04347752 1130.92832277 1742.47878022 1113.36705536 1724.91279984 1095.80706978 C1707.51697111 1078.4171636 1690.12217776 1061.02622282 1672.72877121 1043.63389397 C1672.18858831 1043.09374547 1671.6484054 1042.55359698 1671.09185332 1041.99708035 C1666.1581114 1037.06365163 1661.22438223 1032.13021015 1656.29066836 1027.19675337 C1644.02603628 1014.93276068 1631.76124423 1002.66892796 1619.49634361 990.40520382 C1618.65857124 989.56751143 1618.65857124 989.56751143 1617.80387418 988.71289596 C1590.63566508 961.54730834 1563.4656132 934.38356401 1536.29541016 907.2199707 C1526.86680461 897.79365682 1517.43820721 888.36733479 1508.00964355 878.940979 C1507.42488268 878.35635508 1506.84012181 877.77173116 1506.23764091 877.16939136 C1479.05329301 849.9913876 1451.87025436 822.8120745 1424.68755334 795.63242358 C1422.92281924 793.86788754 1421.15808457 792.10335207 1419.39334978 790.33881671 C1407.69835548 778.64514219 1396.00338375 766.9514451 1384.30842712 755.2577329 C1361.03839039 731.99017267 1337.76822108 708.72274505 1314.49796069 685.45540852 C1313.38977164 684.34735871 1312.28158268 683.23930881 1311.17339382 682.13125882 C1257.54103795 628.50562533 1203.90684067 574.88183369 1090 461 C1091.55132447 457.74093747 1093.19576085 455.55529117 1095.76000404 452.9939003 C1096.54775015 452.2021721 1097.33549625 451.4104439 1098.14711344 450.59472394 C1099.01675113 449.73091194 1099.88638881 448.86709994 1100.78237915 447.97711182 C1101.70288728 447.05489484 1102.62339541 446.13267786 1103.57179773 445.18251491 C1106.12815109 442.62168478 1108.69070681 440.06714055 1111.25430393 437.51356483 C1114.01728189 434.7592143 1116.77448744 431.99909616 1119.53239441 429.2396698 C1124.31184562 424.45916929 1129.09494849 419.68234772 1133.88054276 414.90799713 C1140.79972373 408.00506209 1147.71338321 401.09661876 1154.62570243 394.18681344 C1165.84031041 382.97658398 1177.05937856 371.77082921 1188.28125 360.56787109 C1199.18300512 349.6844707 1210.08266015 338.79897417 1220.97949219 327.91064453 C1221.65104075 327.23962142 1222.3225893 326.56859831 1223.01448782 325.87724116 C1226.38339696 322.51094207 1229.7522648 319.14460165 1233.12111211 315.77824068 C1261.07434066 287.84574953 1289.03480731 259.9205127 1317 232 C1315.40229537 228.63072531 1313.65312737 226.40590426 1311.00106812 223.76055908 C1310.16531754 222.92205917 1309.32956696 222.08355927 1308.4684906 221.21965027 C1307.09069176 219.85263725 1307.09069176 219.85263725 1305.68505859 218.45800781 C1304.70897691 217.48249044 1303.73333574 216.50653212 1302.75810242 215.53016663 C1300.1119385 212.88342897 1297.45965413 210.24290245 1294.80623198 207.6034441 C1292.03331342 204.84302927 1289.26605875 202.07694845 1286.49819946 199.3114624 C1281.25715988 194.07663863 1276.01104297 188.84693394 1270.76308501 183.61904693 C1264.7882296 177.66654735 1258.81905321 171.70836677 1252.85034823 165.74970102 C1240.57320914 153.49346622 1228.28895352 141.24438858 1216 129 C1210.28346079 133.75224293 1205.02094722 138.84467043 1199.7789278 144.11199093 C1198.86708098 145.02418189 1197.95523416 145.93637284 1197.01575562 146.87620595 C1194.48875157 149.40429167 1191.96488989 151.93549411 1189.44152707 154.46721354 C1186.69429106 157.22240956 1183.94408993 159.97464314 1181.19425124 162.7272411 C1176.37660244 167.55051321 1171.56079093 172.3756136 1166.74617386 177.20191193 C1159.58692128 184.37848463 1152.42473169 191.55212074 1145.26182715 198.72504824 C1133.95086333 210.05190036 1122.64150457 221.38035333 1111.3331568 232.70981719 C1093.39123239 250.68511732 1075.44355748 268.65466737 1057.49386363 286.62220882 C1053.6744258 290.44545753 1049.85503986 294.26875808 1046.03564769 298.0920524 C1041.39913047 302.73329751 1036.76260834 307.37453771 1032.12607038 312.0157621 C1014.64591345 329.51361891 997.16645209 347.01217041 979.68774414 364.51147461 C978.8890117 365.31114373 978.09027925 366.11081286 977.2673428 366.93471438 C951.3395446 392.89301919 925.41860252 418.85815903 899.5006546 444.82629843 C872.86175243 471.51669487 846.21458775 498.19881666 819.55746609 524.87101685 C815.79705215 528.63357196 812.0367405 532.39622928 808.27649498 536.15895271 C807.53642152 536.89950979 806.79634805 537.64006687 806.03384812 538.40306507 C794.10098493 550.34424461 782.17704038 562.29429219 770.25646348 574.24773549 C758.29013707 586.24671989 746.31492078 598.23677109 734.33040503 610.21758866 C727.20234953 617.34401009 720.08144559 624.47741222 712.97035826 631.62076625 C708.22794453 636.38334057 703.4766275 641.1369035 698.71777907 645.88305583 C696.00130441 648.59280961 693.2890697 651.30648187 690.58756743 654.03116971 C687.68618592 656.95727409 684.76611182 659.86394896 681.84354877 662.76889706 C680.99612861 663.62973814 680.14870844 664.49057923 679.27560887 665.37750641 C678.50010165 666.14203338 677.72459443 666.90656036 676.925587 667.69425482 C676.25893218 668.36191327 675.59227737 669.02957173 674.90542089 669.71746227 C673 671 673 671 671.05380341 670.98240254 C668.225693 669.62962319 666.43166281 667.8060583 664.21355844 665.58730459 C663.74387421 665.12157886 663.27418999 664.65585312 662.79027291 664.17601449 C661.20623668 662.60164159 659.63317847 661.01673132 658.05978775 659.43172455 C656.91483268 658.28929036 655.76922012 657.1475148 654.62300783 656.00634199 C651.45408616 652.84750118 648.29465661 649.67930934 645.13660565 646.50960559 C641.70726073 643.0708899 638.26926001 639.64084733 634.83232379 636.20972204 C628.80294138 630.18811712 622.7791871 624.16092707 616.75902748 618.13010216 C607.80715077 609.16241003 598.84673798 600.20328412 589.88454072 591.24590768 C574.81062403 576.17959112 559.74378715 561.10621305 544.68100739 546.02876282 C529.76080687 531.09404754 514.83773823 516.16220838 499.91072845 501.23429871 C498.5199419 499.84342051 498.5199419 499.84342051 497.10105865 498.42444376 C493.33765956 494.66081517 489.57424174 490.89720532 485.8107912 487.13362818 C475.28988132 476.6123565 464.76946469 466.09059169 454.24940109 455.56847382 C453.77030604 455.08928577 453.29121098 454.61009773 452.7975979 454.11638884 C429.48465217 430.79882334 406.17748112 407.47548797 382.87060547 384.15185547 C350.45452346 351.71246785 318.03387346 319.27765501 285.60791016 286.84814453 C284.59882185 285.83894383 283.58973367 284.82974301 282.58064561 283.82054206 C279.05569462 280.29519762 275.5307405 276.76985632 272.00578603 273.24451535 C268.99549174 270.23389096 265.98519833 267.22326568 262.97490593 264.21263939 C261.47399231 262.71156032 259.97307703 261.2104829 258.4721617 259.70940554 C226.62987173 227.86363722 194.7915903 196.01386167 162.95397873 164.16341624 C153.62258485 154.8282991 144.2909612 145.4934118 134.95883656 136.15902519 C115.32838556 116.52377155 95.69906139 96.88739514 76.07435688 77.24639785 C67.95426737 69.11964032 59.83341145 60.99365252 51.71031761 52.86989784 C44.98183039 46.14086112 38.25497725 39.41019672 31.53042411 32.67722842 C28.13989437 29.28255292 24.74855863 25.8886929 21.35506275 22.49698228 C18.27533489 19.41883719 15.1978714 16.33844793 12.12229302 13.25615697 C11.00910001 12.14135492 9.89504685 11.02741104 8.78008593 9.91437716 C7.27944224 8.41608834 5.78184633 6.91482116 4.28504491 5.41269541 C3.45113157 4.57826683 2.61721822 3.74383825 1.75803478 2.88412395 C0 1 0 1 0 0 Z " fill="#BCD9C1" transform="translate(2939,0)"/>
<path d="M0 0 C7.87440918 6.74949359 7.87440918 6.74949359 10.7890625 9.69140625 C11.42070312 10.32626953 12.05234375 10.96113281 12.703125 11.61523438 C13.33734375 12.25783203 13.9715625 12.90042969 14.625 13.5625 C15.26695313 14.20896484 15.90890625 14.85542969 16.5703125 15.52148438 C18.88070405 17.84844636 21.18978507 20.17663999 23.48974609 22.51391602 C25.38280992 24.4282934 27.23040225 26.1758333 29.375 27.8125 C32.33078145 30.27565121 34.67706134 32.99621522 37.171875 35.9140625 C39.96294309 39.09874275 42.97840809 42.03651562 46 45 C46.86625 45.886875 47.7325 46.77375 48.625 47.6875 C50.91756373 50.01219452 50.91756373 50.01219452 53.375 51.8125 C56.33078145 54.27565121 58.67706134 56.99621522 61.171875 59.9140625 C63.96294309 63.09874275 66.97840809 66.03651562 70 69 C70.86625 69.886875 71.7325 70.77375 72.625 71.6875 C74.92931284 74.0207044 74.92931284 74.0207044 77.4375 75.875 C80.10733871 78.08901259 82.18856599 80.44395438 84.375 83.12109375 C86.46679599 85.53973287 88.72396904 87.75409298 91 90 C102 101 102 101 104.69140625 103.7265625 C106.93716151 106.03037586 106.93716151 106.03037586 109.4375 107.875 C112.10733871 110.08901259 114.18856599 112.44395438 116.375 115.12109375 C118.46679599 117.53973287 120.72396904 119.75409298 123 122 C136.34440104 135.34440104 149.68880208 148.68880208 163.03320312 162.03320312 C163.53327881 162.53255371 164.03335449 163.0319043 164.54858398 163.54638672 C165.95097825 164.95090403 167.34575205 166.36301758 168.74023438 167.77539062 C170.93470635 170.02869171 170.93470635 170.02869171 173.375 171.8125 C175.54621213 173.62184344 177.13752962 175.26568372 178.9375 177.40625 C183.88056769 183.11331679 189.26763394 188.37500442 194.625 193.6875 C195.65909041 194.71655953 196.69294602 195.74585507 197.7265625 196.77539062 C199.62697857 198.66772395 201.528976 200.5584121 203.43212891 202.44799805 C205.95994055 204.96018811 208.48117126 207.47880641 211 210 C211.8971875 210.8971875 212.794375 211.794375 213.71875 212.71875 C242.47916667 241.47916667 271.23958333 270.23958333 300 299 C305.91504031 294.09301179 311.3397843 288.79814148 316.76329041 283.35696411 C317.73844677 282.38224444 318.71382311 281.40774481 319.68939883 280.43344486 C322.35519954 277.76986986 325.01788945 275.10320433 327.68006194 272.43600368 C330.55681334 269.55492025 333.43646818 266.67674132 336.31576538 263.79820251 C341.2991971 258.81529429 346.28079951 253.83056332 351.26115227 248.84457779 C358.46184526 241.63574614 365.665309 234.42968841 372.86944468 227.22429739 C384.55855712 215.53299815 396.24543621 203.83946905 407.9309082 192.14453125 C419.27999463 180.78626108 430.63013439 169.4290452 441.98168945 158.07324219 C442.68179435 157.37287457 443.38189925 156.67250695 444.10321944 155.95091607 C447.61556453 152.43726591 451.1279303 148.92363644 454.64030635 145.41001725 C483.7634122 116.27655037 512.88289254 87.13946183 542 58 C548.71646816 63.51715107 554.78578366 69.64540631 560.91843319 75.78979874 C562.1338232 77.00384124 563.34943154 78.2176652 564.56523767 79.43129098 C567.91001082 82.77133763 571.25166539 86.11448923 574.592822 89.45815309 C578.2265471 93.09351136 581.86315782 96.72598109 585.49939972 100.35882163 C591.87333051 106.72759736 598.24538985 113.09824074 604.61623001 119.47010803 C614.0895098 128.94491142 623.56562798 138.41687221 633.04228958 147.88829297 C650.94870419 165.78503155 668.85168428 183.68520275 686.75354742 201.58649376 C688.72754842 203.56043001 690.70155101 205.53436466 692.67555499 207.50829792 C693.41031939 208.24303681 693.41031939 208.24303681 694.15992752 208.99261892 C705.01438693 219.84666988 715.86973688 230.69983001 726.72524501 241.5528321 C731.19482537 246.02138413 735.66438659 250.4899553 740.13395172 254.95852256 C740.62778715 255.4522474 741.12162258 255.94597224 741.63042272 256.45465844 C769.92515506 284.74306766 798.21878879 313.03257531 826.51013088 341.32437515 C827.5687197 342.38297975 828.62730854 343.44158433 829.68589741 344.50018889 C834.46539318 349.27975804 839.24488155 354.05933459 844.02436785 358.83891321 C846.15569281 360.9702793 848.28701826 363.10164489 850.41834376 365.23301043 C851.48510883 366.2997959 852.5518736 367.36658169 853.61863805 368.43336778 C887.37342512 402.18883556 921.13221296 435.94029733 954.89428711 469.68847656 C963.40538911 478.19607769 971.91647537 486.70369456 980.42747402 495.21139908 C980.95149346 495.73521564 981.4755129 496.2590322 982.01541171 496.798722 C998.15673722 512.93383609 1014.29684101 529.07017146 1030.43569279 545.20775986 C1030.94210398 545.7141311 1031.44851517 546.22050234 1031.97027215 546.74221816 C1043.08505496 557.85614785 1054.1995419 568.97037339 1065.31375571 580.0848721 C1069.29010741 584.06132028 1073.26648133 588.03774624 1077.24286617 592.01416128 C1078.23212029 593.00342331 1079.22137325 593.99268649 1080.21062507 594.98195081 C1095.99287333 610.76437561 1111.77806103 626.5438565 1127.56470869 642.32188061 C1143.89523131 658.64352784 1160.22211769 674.96880442 1176.54480457 691.29828861 C1185.96425509 700.72144967 1195.38649697 710.14179974 1204.81268226 719.55822397 C1211.09668635 725.83626746 1217.377097 732.11789003 1223.65451086 738.40252306 C1227.23905886 741.99098592 1230.8252213 745.5777961 1234.41573542 749.16029027 C1237.6747629 752.4121013 1240.92924722 755.668385 1244.17999438 758.9284731 C1245.35643673 760.1066528 1246.53459828 761.28311867 1247.71457804 762.45775555 C1249.30378187 764.04023815 1250.88681864 765.62863357 1252.46833795 767.21879029 C1253.35024603 768.10061015 1254.23215411 768.98243001 1255.14078667 769.89097168 C1257 772 1257 772 1257 774 C1257.54785156 774.22042969 1258.09570312 774.44085937 1258.66015625 774.66796875 C1261.73548994 776.41870129 1264.00158721 778.78947066 1266.4375 781.3125 C1266.90220703 781.78623047 1267.36691406 782.25996094 1267.84570312 782.74804688 C1269.23322758 784.16266386 1270.61663507 785.58131512 1272 787 C1272.90105469 787.89203125 1273.80210938 788.7840625 1274.73046875 789.703125 C1277 792 1277 792 1278.875 794.4375 C1281.08901259 797.10733871 1283.44395438 799.18856599 1286.12109375 801.375 C1288.53948663 803.46658303 1290.75061947 805.72759949 1293 808 C1294.03626937 809.01584618 1295.0740897 810.03011211 1296.11328125 811.04296875 C1297.17973223 812.09110033 1298.24613804 813.13927786 1299.3125 814.1875 C1299.86228516 814.72052734 1300.41207031 815.25355469 1300.97851562 815.80273438 C1302.35715678 817.16424956 1303.68339727 818.57840502 1305 820 C1305 820.66 1305 821.32 1305 822 C1305.56384565 822.23897898 1306.12769129 822.47795796 1306.70862317 822.72417873 C1309.500009 824.27840122 1311.40153086 826.15203495 1313.66202927 828.4131403 C1314.11744042 828.86594416 1314.57285157 829.31874803 1315.04206306 829.78527322 C1316.57194914 831.30884629 1318.09458424 832.8394657 1319.61737061 834.37013245 C1320.72171941 835.47289345 1321.82650573 836.57521646 1322.93169236 837.67713779 C1325.97139334 840.7104141 1329.00480477 843.74991349 1332.03724074 846.79045045 C1335.30695115 850.06672933 1338.58241105 853.33725119 1341.85716248 856.60848999 C1348.27236109 863.0186426 1354.68219866 869.43413051 1361.09024969 875.8514275 C1368.54605906 883.31760879 1376.00708048 890.77857244 1383.46832064 898.23932587 C1396.77515255 911.54565696 1410.07714404 924.85681645 1423.37646484 938.1706543 C1436.29568802 951.1039724 1449.2184156 964.03377554 1462.14501953 976.9597168 C1463.33973492 978.15437225 1463.33973492 978.15437225 1464.55858597 979.37316216 C1465.3536571 980.16819293 1466.14872822 980.9632237 1466.96789241 981.78234631 C1481.66663232 996.48039729 1496.362084 1011.18173197 1511.05599914 1025.88460626 C1516.26156024 1031.09318974 1521.46810318 1036.30079056 1526.67494965 1041.50808907 C1533.01381248 1047.84763238 1539.35079098 1054.18905243 1545.68538705 1060.53285927 C1548.92054331 1063.77264824 1552.15649835 1067.01162868 1555.39459801 1070.24847603 C1558.35357108 1073.20636018 1561.31025163 1076.16651523 1564.26504651 1079.12857305 C1565.33941604 1080.20476723 1566.41464494 1081.28010424 1567.49077687 1082.35453612 C1568.94325201 1083.80496908 1570.3924014 1085.25873028 1571.8413353 1086.71270084 C1572.65024963 1087.5223196 1573.45916397 1088.33193836 1574.29259086 1089.16609102 C1576 1091 1576 1091 1576 1092 C1055.92 1092 535.84 1092 0 1092 C0 731.64 0 371.28 0 0 Z " fill="#A1CCB9" transform="translate(0,2242)"/>
<path d="M0 0 C511.17 0 1022.34 0 1549 0 C1542.25 7.875 1542.25 7.875 1538.76342201 11.35962582 C1537.97119511 12.15384376 1537.17896821 12.94806171 1536.36273444 13.76634687 C1535.50863907 14.6175294 1534.6545437 15.46871193 1533.77456665 16.34568787 C1532.85472437 17.26638457 1531.93488209 18.18708127 1530.98716581 19.13567787 C1528.44900734 21.67606087 1525.90776087 24.21333459 1523.36597657 26.75008905 C1520.61986285 29.491869 1517.87665547 32.23655415 1515.13308716 34.98088074 C1510.38426898 39.7302223 1505.63362885 44.47773502 1500.88173294 49.22399712 C1494.01136052 56.08622938 1487.14376352 62.95123374 1480.27683251 69.81690956 C1469.13459064 80.95696486 1457.99011921 92.09478692 1446.84423828 103.23120117 C1436.01949646 114.04675865 1425.1958094 124.86336988 1414.37353516 135.68139648 C1413.37226915 136.6822684 1413.37226915 136.6822684 1412.35077555 137.70335995 C1409.00195018 141.05088025 1405.6531455 144.39842124 1402.30435109 147.74597251 C1374.53943989 175.50052341 1346.77090711 203.25144863 1319 231 C1315.04381538 227.6617058 1311.1741725 224.29923711 1307.51368713 220.63394165 C1306.28761497 219.40993149 1306.28761497 219.40993149 1305.03677368 218.16119385 C1304.16426971 217.2850946 1303.29176575 216.40899536 1302.39282227 215.50634766 C1301.44620404 214.55944681 1300.49936449 213.61276719 1299.55232239 212.66629028 C1297.00098836 210.11524132 1294.4527336 207.56113695 1291.90504956 205.0064435 C1289.23496681 202.33007869 1286.56202226 199.65657504 1283.88938904 196.98275757 C1278.83729389 191.92756335 1273.78775171 186.86982708 1268.73913759 181.81115663 C1262.98774703 176.04856058 1257.23349208 170.28882838 1251.47900307 164.52932668 C1239.64949433 152.6893858 1227.82356084 140.84588062 1216 129 C1210.28346079 133.75224293 1205.02094722 138.84467043 1199.7789278 144.11199093 C1198.86708098 145.02418189 1197.95523416 145.93637284 1197.01575562 146.87620595 C1194.48875157 149.40429167 1191.96488989 151.93549411 1189.44152707 154.46721354 C1186.69429106 157.22240956 1183.94408993 159.97464314 1181.19425124 162.7272411 C1176.37660244 167.55051321 1171.56079093 172.3756136 1166.74617386 177.20191193 C1159.58692128 184.37848463 1152.42473169 191.55212074 1145.26182715 198.72504824 C1133.95086333 210.05190036 1122.64150457 221.38035333 1111.3331568 232.70981719 C1093.39123239 250.68511732 1075.44355748 268.65466737 1057.49386363 286.62220882 C1053.6744258 290.44545753 1049.85503986 294.26875808 1046.03564769 298.0920524 C1041.39913047 302.73329751 1036.76260834 307.37453771 1032.12607038 312.0157621 C1014.64591345 329.51361891 997.16645209 347.01217041 979.68774414 364.51147461 C978.8890117 365.31114373 978.09027925 366.11081286 977.2673428 366.93471438 C951.3395446 392.89301919 925.41860252 418.85815903 899.5006546 444.82629843 C872.86175243 471.51669487 846.21458775 498.19881666 819.55746609 524.87101685 C815.79705215 528.63357196 812.0367405 532.39622928 808.27649498 536.15895271 C807.53642152 536.89950979 806.79634805 537.64006687 806.03384812 538.40306507 C794.10098493 550.34424461 782.17704038 562.29429219 770.25646348 574.24773549 C758.29013707 586.24671989 746.31492078 598.23677109 734.33040503 610.21758866 C727.20234953 617.34401009 720.08144559 624.47741222 712.97035826 631.62076625 C708.22794453 636.38334057 703.4766275 641.1369035 698.71777907 645.88305583 C696.00130441 648.59280961 693.2890697 651.30648187 690.58756743 654.03116971 C687.68618592 656.95727409 684.76611182 659.86394896 681.84354877 662.76889706 C680.99612861 663.62973814 680.14870844 664.49057923 679.27560887 665.37750641 C678.50010165 666.14203338 677.72459443 666.90656036 676.925587 667.69425482 C676.25893218 668.36191327 675.59227737 669.02957173 674.90542089 669.71746227 C673 671 673 671 671.05380341 670.98240254 C668.225693 669.62962319 666.43166281 667.8060583 664.21355844 665.58730459 C663.74387421 665.12157886 663.27418999 664.65585312 662.79027291 664.17601449 C661.20623668 662.60164159 659.63317847 661.01673132 658.05978775 659.43172455 C656.91483268 658.28929036 655.76922012 657.1475148 654.62300783 656.00634199 C651.45408616 652.84750118 648.29465661 649.67930934 645.13660565 646.50960559 C641.70726073 643.0708899 638.26926001 639.64084733 634.83232379 636.20972204 C628.80294138 630.18811712 622.7791871 624.16092707 616.75902748 618.13010216 C607.80715077 609.16241003 598.84673798 600.20328412 589.88454072 591.24590768 C574.81062403 576.17959112 559.74378715 561.10621305 544.68100739 546.02876282 C529.76080687 531.09404754 514.83773823 516.16220838 499.91072845 501.23429871 C498.5199419 499.84342051 498.5199419 499.84342051 497.10105865 498.42444376 C493.33765956 494.66081517 489.57424174 490.89720532 485.8107912 487.13362818 C475.28988132 476.6123565 464.76946469 466.09059169 454.24940109 455.56847382 C453.77030604 455.08928577 453.29121098 454.61009773 452.7975979 454.11638884 C429.48465217 430.79882334 406.17748112 407.47548797 382.87060547 384.15185547 C350.45452346 351.71246785 318.03387346 319.27765501 285.60791016 286.84814453 C284.59882185 285.83894383 283.58973367 284.82974301 282.58064561 283.82054206 C279.05569462 280.29519762 275.5307405 276.76985632 272.00578603 273.24451535 C268.99549174 270.23389096 265.98519833 267.22326568 262.97490593 264.21263939 C261.47399231 262.71156032 259.97307703 261.2104829 258.4721617 259.70940554 C226.62987173 227.86363722 194.7915903 196.01386167 162.95397873 164.16341624 C153.62258485 154.8282991 144.2909612 145.4934118 134.95883656 136.15902519 C115.32838556 116.52377155 95.69906139 96.88739514 76.07435688 77.24639785 C67.95426737 69.11964032 59.83341145 60.99365252 51.71031761 52.86989784 C44.98183039 46.14086112 38.25497725 39.41019672 31.53042411 32.67722842 C28.13989437 29.28255292 24.74855863 25.8886929 21.35506275 22.49698228 C18.27533489 19.41883719 15.1978714 16.33844793 12.12229302 13.25615697 C11.00910001 12.14135492 9.89504685 11.02741104 8.78008593 9.91437716 C7.27944224 8.41608834 5.78184633 6.91482116 4.28504491 5.41269541 C3.45113157 4.57826683 2.61721822 3.74383825 1.75803478 2.88412395 C0 1 0 1 0 0 Z " fill="#DDEBDE" transform="translate(2939,0)"/>
<path d="M0 0 C0.99 0.33 1.98 0.66 3 1 C3 1.66 3 2.32 3 3 C3.86625 3.37125 3.86625 3.37125 4.75 3.75 C7.32939979 5.18299988 9.06121592 6.78424676 11 9 C11 9.66 11 10.32 11 11 C11.5775 11.2475 12.155 11.495 12.75 11.75 C15.32939979 13.18299988 17.06121592 14.78424676 19 17 C19 17.66 19 18.32 19 19 C19.86625 19.37125 19.86625 19.37125 20.75 19.75 C23.32939979 21.18299988 25.06121592 22.78424676 27 25 C27 25.66 27 26.32 27 27 C27.86625 27.37125 27.86625 27.37125 28.75 27.75 C31.32939979 29.18299988 33.06121592 30.78424676 35 33 C35 33.66 35 34.32 35 35 C35.5775 35.2475 36.155 35.495 36.75 35.75 C39.32939979 37.18299988 41.06121592 38.78424676 43 41 C43 41.66 43 42.32 43 43 C43.5775 43.2475 44.155 43.495 44.75 43.75 C47.32939979 45.18299988 49.06121592 46.78424676 51 49 C51 49.66 51 50.32 51 51 C51.5775 51.2475 52.155 51.495 52.75 51.75 C55.32939979 53.18299988 57.06121592 54.78424676 59 57 C59 57.66 59 58.32 59 59 C59.5775 59.2475 60.155 59.495 60.75 59.75 C63.32939979 61.18299988 65.06121592 62.78424676 67 65 C67 65.66 67 66.32 67 67 C67.86625 67.37125 67.86625 67.37125 68.75 67.75 C71.32939979 69.18299988 73.06121592 70.78424676 75 73 C75 73.66 75 74.32 75 75 C75.86625 75.37125 75.86625 75.37125 76.75 75.75 C79.32939979 77.18299988 81.06121592 78.78424676 83 81 C83 81.66 83 82.32 83 83 C83.86625 83.37125 83.86625 83.37125 84.75 83.75 C87.32939979 85.18299988 89.06121592 86.78424676 91 89 C91 89.66 91 90.32 91 91 C91.53109375 91.20625 92.0621875 91.4125 92.609375 91.625 C96.00773436 93.57961192 98.51055928 96.22123717 101.25 99 C101.80429688 99.5465625 102.35859375 100.093125 102.9296875 100.65625 C107 104.7466133 107 104.7466133 107 107 C107.56170898 107.2371875 108.12341797 107.474375 108.70214844 107.71875 C111.52582658 109.29319357 113.47614842 111.21684545 115.765625 113.5 C117.09980469 114.8303125 117.09980469 114.8303125 118.4609375 116.1875 C119.38132812 117.115625 120.30171875 118.04375 121.25 119 C122.18585938 119.928125 123.12171875 120.85625 124.0859375 121.8125 C124.97023438 122.699375 125.85453125 123.58625 126.765625 124.5 C127.57805664 125.3146875 128.39048828 126.129375 129.22753906 126.96875 C131 129 131 129 131 131 C131.86625 131.37125 131.86625 131.37125 132.75 131.75 C135.32939979 133.18299988 137.06121592 134.78424676 139 137 C139 137.66 139 138.32 139 139 C139.86625 139.37125 139.86625 139.37125 140.75 139.75 C143.32939979 141.18299988 145.06121592 142.78424676 147 145 C147 145.66 147 146.32 147 147 C147.86625 147.37125 147.86625 147.37125 148.75 147.75 C151.32939979 149.18299988 153.06121592 150.78424676 155 153 C155 153.66 155 154.32 155 155 C155.5922257 155.26737262 156.1844514 155.53474524 156.79462333 155.81022006 C159.03421848 157.01846055 160.49347731 158.24363797 162.28602672 160.03647906 C162.91855237 160.6642539 163.55107803 161.29202874 164.20277113 161.93882707 C164.89015334 162.63117746 165.57753555 163.32352785 166.28574753 164.03685856 C167.02480546 164.7733092 167.76386339 165.50975985 168.52531701 166.26852718 C171.02009257 168.75696701 173.50762755 171.25252311 175.99530029 173.74806213 C177.79261505 175.54378981 179.59036742 177.33907958 181.38852143 179.13396686 C185.30705532 183.04741143 189.22244322 186.96396316 193.13512611 190.88325691 C198.95320452 196.71113851 204.77698098 202.53330078 210.60193186 208.35431236 C220.39974523 218.1458447 230.19282001 227.9421036 239.98314667 237.74112129 C249.67957806 247.44615867 259.37785256 257.14934755 269.07868195 266.84998894 C269.68146784 267.45276718 270.28425373 268.05554543 270.90530586 268.67658968 C273.35200882 271.12325174 275.79872413 273.56990144 278.24545629 276.0165343 C301.20844897 298.97862043 324.16600779 321.94613219 347.12085413 344.9163618 C367.53284586 365.34198224 387.9485328 385.76390161 408.36767578 406.18237305 C409.67908205 407.49373891 410.9904883 408.80510479 412.30189452 410.1164707 C412.95021733 410.76477316 413.59854014 411.41307563 414.2665091 412.08102362 C417.52980389 415.34421762 420.79309358 418.60741672 424.05637741 421.87062168 C424.70011844 422.514346 425.34385948 423.15807032 426.00710781 423.82130144 C443.05109932 440.86492814 460.09264091 457.91100402 477.13334584 474.95791668 C477.73915767 475.56394878 478.3449695 476.16998088 478.96913926 476.79437759 C481.40544692 479.23157352 483.84175453 481.6687695 486.27804917 484.10597845 C494.76843201 492.59952593 503.25964427 501.09224341 511.75138875 509.58442952 C522.69033823 520.52397498 533.6275971 531.4652062 544.56191197 542.4093842 C550.35034041 548.20294327 556.14013633 553.99512774 561.93188831 559.78536435 C566.24389633 564.0965561 570.55330403 568.41033699 574.8616561 572.72518265 C576.61435209 574.47970387 578.36790789 576.23336664 580.12236628 577.98612554 C582.48974613 580.35146443 584.85408498 582.7197998 587.21761703 585.08898258 C587.91436391 585.78367414 588.61111079 586.4783657 589.32897121 587.19410852 C589.95148279 587.81937984 590.57399437 588.44465117 591.21536994 589.08887011 C591.75728755 589.63107922 592.29920517 590.17328833 592.85754453 590.73192802 C594 592 594 592 594 593 C507.95814725 599.93725723 421.86097354 605.21959243 292.99115878 609.63946486 C289.21162612 609.75419823 285.43216502 609.87095205 281.65275449 609.98963976 C191.41968917 612.82042452 100.34599063 614.43609989 -176.06819153 515.24629211 C-194.02665201 498.32826404 -210.25618724 479.94838318 -225.93678433 460.92677301 C-227.94502843 458.49086837 -229.959749 456.06043433 -231.97523069 453.63051653 C-265.75064075 412.82177335 -295.82296204 370.05591358 -322 324 C-320.40834707 320.07718847 -317.71276459 317.43610017 -314.75634575 314.51025009 C-314.21375848 313.96535514 -313.67117121 313.42046018 -313.11214191 312.85905325 C-311.28316989 311.02476524 -309.44712008 309.19772896 -307.61105347 307.37054443 C-306.28896384 306.04758307 -304.96731363 304.72418247 -303.64606678 303.40037942 C-300.00657211 299.75640098 -296.36085077 296.11870773 -292.71411204 292.4819808 C-288.78548404 288.56197017 -284.86261736 284.63620167 -280.9390564 280.71112061 C-274.13791938 273.90893365 -267.33312298 267.11042522 -260.52584457 260.31438446 C-250.68360461 250.4883818 -240.84687599 240.65687707 -231.01149429 230.82401016 C-215.05502796 214.87192371 -199.09410714 198.92430279 -183.13037109 182.97949219 C-167.62086297 167.48834981 -152.11345471 151.9951103 -136.60888672 136.49902344 C-136.13105188 136.02145165 -135.65321704 135.54387986 -135.16090236 135.0518362 C-130.36233474 130.25590561 -125.56380981 125.45993231 -120.76531615 120.66392771 C-80.51666239 80.4361597 -40.26080921 40.21560235 0 0 Z " fill="#E0EDE1" transform="translate(1629,2741)"/>
<path d="M0 0 C9.9 0 19.8 0 30 0 C32.31 2.64 34.62 5.28 37 8 C39.1478332 10.22855131 41.30380162 12.43151697 43.49853516 14.61206055 C44.10600082 15.21967224 44.71346649 15.82728394 45.33934021 16.45330811 C47.3202163 18.4334954 49.30459723 20.41012898 51.2890625 22.38671875 C52.679775 23.77556226 54.07026399 25.16462962 55.46054077 26.5539093 C59.10268484 30.19225664 62.7478202 33.82759236 66.39361572 37.46228027 C70.10016049 41.15858512 73.80387127 44.85772719 77.5078125 48.55664062 C83.48917103 54.52923709 89.47222863 60.50012492 95.45759583 66.46870422 C96.24786919 67.25680984 96.24786919 67.25680984 97.05410767 68.06083679 C97.50499063 68.51042094 97.9558736 68.96000509 98.42041969 69.42321301 C100.61508802 71.61400031 102.80734414 73.80719889 105 76 C106.07048034 77.07048787 107.14096469 78.14097172 108.21145231 79.21145231 C166.62943436 137.62943436 225.04741641 196.04741641 509 480 C507.6586644 482.98274945 506.18068045 485.06900246 503.87194318 487.37645382 C502.89956637 488.3555725 502.89956637 488.3555725 501.9075456 489.35447136 C501.19227341 490.06448951 500.47700123 490.77450767 499.74005413 491.50604153 C498.97947627 492.26892708 498.2188984 493.03181263 497.43527272 493.81781593 C494.8647196 496.39369697 492.28704638 498.9623348 489.70939636 501.53111267 C487.8546461 503.38673444 486.00033512 505.24279537 484.14642793 507.09925944 C480.1042166 511.14562224 476.05829504 515.18824543 472.00994492 519.22846603 C465.98991878 525.23643687 459.97562076 531.25011724 453.96249827 537.26499666 C443.84671717 547.38340781 433.72628061 557.49715045 423.60320091 567.6082592 C413.57418163 577.62544927 403.54722884 587.64470041 393.52303505 597.66671944 C392.58854563 598.60100264 392.58854563 598.60100264 391.63517763 599.55416025 C388.47129986 602.71736135 385.30745904 605.8805994 382.14363245 609.04385168 C359.72076473 631.46251615 337.29326203 653.87653853 314.86303711 676.2878418 C293.08237672 698.05014978 271.30380536 719.81454484 249.52807617 741.58178711 C248.85742938 742.25217085 248.18678259 742.92255459 247.49581317 743.61325299 C240.76044605 750.34598289 234.02512168 757.07875554 227.28982876 763.81155967 C213.55579463 777.5405172 199.82147811 791.26919221 186.08699036 804.99769592 C185.45511597 805.62929573 184.82324158 806.26089554 184.17221949 806.91163473 C145.92355501 845.14361979 107.66938904 883.37009994 69.413984 921.59534019 C68.60267233 922.40601765 67.79136067 923.21669512 66.9554638 924.05193856 C65.46740479 925.53883194 63.97933792 927.02571746 62.49126115 928.51259306 C58.99344941 932.00767142 55.4961577 935.50326708 52 939 C37.66666667 953.33333333 23.33333333 967.66666667 9 982 C7.71609375 983.31484375 7.71609375 983.31484375 6.40625 984.65625 C4 987 4 987 0 990 C0 663.3 0 336.6 0 0 Z " fill="#D4E7DB" transform="translate(0,0)"/>
<path d="M0 0 C1.16464783 0.00060425 2.32929565 0.0012085 3.52923584 0.00183105 C92.67590654 0.12606462 181.09444186 12.60558955 432 100.1875 C433.14678223 100.74727539 434.29356445 101.30705078 435.47509766 101.88378906 C450.05580382 109.01585099 464.36635959 116.46327913 478.37548828 124.66796875 C481.1711239 126.28657676 483.98620496 127.86603274 486.80859375 129.4375 C497.81013418 135.56473427 508.51496431 141.94293647 519.01464844 148.89208984 C522.32556999 151.05241323 525.69720698 153.11336893 529.0625 155.1875 C540.04524593 161.99582696 550.62676003 169.38146339 561.03515625 177.03515625 C564.0542049 179.22685033 567.10297288 181.37090914 570.15917969 183.51025391 C577.71485406 188.80322192 585.12748015 194.22003544 592.38330078 199.91796875 C594.09479193 201.26193643 595.81086427 202.59991053 597.52734375 203.9375 C608.63809829 212.61221482 619.5120596 221.55373756 630.24267578 230.69335938 C632.12579613 232.29445642 634.0140312 233.88940614 635.90234375 235.484375 C637.18507322 236.57270763 638.46762943 237.6612445 639.75 238.75 C640.35884033 239.26280518 640.96768066 239.77561035 641.5949707 240.30395508 C645.88620234 243.95990468 645.88620234 243.95990468 647 246.1875 C220.64 246.1875 -205.72 246.1875 -645 246.1875 C-637.05620769 238.24370769 -628.8449692 230.72871085 -620.09375 223.6875 C-617.74368 221.78845353 -615.41356378 219.87291304 -613.09375 217.9375 C-604.28775942 210.60002435 -595.34071633 203.53396948 -586.10839844 196.74121094 C-583.89232951 195.10815598 -581.68406961 193.46491937 -579.4765625 191.8203125 C-543.9642186 165.42015106 -506.83642918 141.40765271 -468 120.1875 C-466.94312988 119.60758301 -465.88625977 119.02766602 -464.79736328 118.43017578 C-385.41114619 74.93991781 -299.90668563 42.77446391 -207 22.1875 C-206.28082397 22.0295697 -205.56164795 21.8716394 -204.82067871 21.70892334 C-160.70395414 12.06317381 -115.89418706 5.84521493 -70.875 2.5 C-70.05906372 2.43897095 -69.24312744 2.37794189 -68.40246582 2.31506348 C-45.62037258 0.63788957 -22.84091925 -0.02225769 0 0 Z " fill="#C9E2D9" transform="translate(3038,3087.8125)"/>
<path d="M0 0 C55.25946259 -8.94821433 110.65223059 -14.80527554 166.53715467 -18.06217003 C169.73946585 -18.24938415 172.94143975 -18.44178388 176.14343643 -18.6342926 C284.31366582 -25.03292092 374.44979544 -16.32452557 458.03474502 57.84223162 C488.07945601 84.74745494 516.04647751 113.489502 543.11333394 143.36573339 C545.5072544 146.008007 547.904661 148.64708439 550.30246544 151.28583336 C591.46607473 196.63369399 630.66996961 243.45144599 668 292 C663.69167062 297.14821418 659.17593997 301.96452393 654.42047119 306.69978333 C653.6776328 307.44347614 652.9347944 308.18716896 652.16944575 308.95339793 C649.693781 311.43070236 647.21457283 313.90442907 644.73535156 316.37817383 C642.95426817 318.15897499 641.17340526 319.93999669 639.39274597 321.72122192 C635.56541113 325.54878408 631.73655486 329.37481387 627.90628815 333.19944191 C622.36627851 338.73130148 616.82905406 344.26594214 611.29249105 349.80125102 C602.30551171 358.78604478 593.31630439 367.76860601 584.32568359 376.74975586 C575.60022682 385.46603063 566.87582293 394.18335704 558.15283203 402.90209961 C557.61489298 403.43977594 557.07695393 403.97745227 556.52271369 404.53142182 C553.82358557 407.22924473 551.12447819 409.92708838 548.42538118 412.62494242 C527.60888676 433.43180196 506.78942654 454.2356909 485.96752381 475.03713828 C485.33674731 475.66729809 484.70597081 476.29745789 484.05607986 476.94671345 C483.5102567 477.49199454 482.96443354 478.03727563 482.40207028 478.59908038 C481.26777326 479.7324465 480.13383167 480.86616833 479 482 C478.57715469 481.50632992 478.15430938 481.01265985 477.71865058 480.50403007 C473.60626392 475.74725011 469.34837227 471.20804179 464.89171696 466.77425575 C463.86657738 465.7482842 463.86657738 465.7482842 462.82072791 464.70158595 C460.54041247 462.42063102 458.25654495 460.1432672 455.97267151 457.86587524 C454.31649289 456.21069323 452.6605379 454.55528742 451.00478691 452.89967763 C446.9378865 448.8342484 442.86867528 444.77114271 438.79849059 440.70900181 C433.92101066 435.84088395 429.04648316 430.96981386 424.17209695 426.09859862 C415.17706553 417.10954243 406.1798479 408.12267758 397.18152046 399.13692093 C384.33270165 386.30594725 371.48810971 373.47074735 358.64438433 360.63467544 C353.48936034 355.48276045 348.33419985 350.33098203 343.17903805 345.17920494 C342.60637426 344.60691592 342.03371047 344.03462691 341.44369324 343.4449958 C327.82132721 329.83159673 314.19761384 316.21954633 300.57348633 302.60791016 C299.67955102 301.71479145 299.67955102 301.71479145 298.76755641 300.80362995 C284.85142568 286.90023424 270.93465326 272.99748124 257.01678467 259.0958252 C256.11778597 258.19787228 256.11778597 258.19787228 255.20062568 257.2817789 C252.17819998 254.26287107 249.15576983 251.24396771 246.13333946 248.22506456 C245.53595149 247.62837337 244.93856351 247.03168218 244.32307288 246.41690944 C243.11729237 245.21253569 241.91151112 244.0081627 240.7057291 242.80379047 C220.80629273 222.92757822 200.91023477 203.04798923 181.01791578 183.16465375 C178.21206287 180.3600775 175.40616393 177.55554731 172.60023308 174.75104904 C172.04799839 174.1990957 171.4957637 173.64714236 170.92679462 173.07846315 C162.0232613 164.17969477 153.11603004 155.28463662 144.20733409 146.39103695 C135.266499 137.4652383 126.32916729 128.53594469 117.39549113 119.60298069 C112.55158538 114.75967293 107.70603792 109.91803443 102.85595703 105.08090973 C98.42390822 100.66039867 93.9964066 96.2353876 89.57260906 91.80661957 C87.96422037 90.1980785 86.35410656 88.59126033 84.74217851 86.98626609 C82.56598084 84.81895319 80.39591638 82.64568672 78.22739506 80.4706974 C77.26778919 79.51940135 77.26778919 79.51940135 76.28879735 78.54888719 C72 74.22828732 72 74.22828732 72 72 C71.40316532 71.72792725 70.80633064 71.45585449 70.19141006 71.17553711 C68.0452046 70.02424908 66.65110028 68.9024716 64.93743896 67.19140625 C64.35977783 66.61938477 63.7821167 66.04736328 63.18695068 65.45800781 C62.56548157 64.83249023 61.94401245 64.20697266 61.30371094 63.5625 C60.63988403 62.90217773 59.97605713 62.24185547 59.29211426 61.56152344 C57.10114524 59.37935146 54.91756598 57.18995164 52.734375 55 C51.21580792 53.48277982 49.69694402 51.96585667 48.17779541 50.44921875 C44.99710144 47.27147303 41.82005286 44.09013812 38.64550781 40.90625 C34.56756302 36.81689153 30.4806806 32.73660186 26.39104843 28.65893555 C23.25458705 25.52968422 20.12288393 22.39570598 16.99262238 19.26025391 C15.48693085 17.75322453 13.97974209 16.24768957 12.47106171 14.74365234 C10.36874589 12.64638976 8.27290496 10.5428682 6.17871094 8.4375 C5.5491449 7.81198242 4.91957886 7.18646484 4.27093506 6.54199219 C0 2.22853004 0 2.22853004 0 0 Z " fill="#EEF5EE" transform="translate(30,0)"/>
<path d="M0 0 C49.02991546 0 49.02991546 0 64.875 1.1875 C65.80128204 1.25246674 66.72756409 1.31743347 67.68191528 1.3843689 C157.71234252 7.70761408 245.95709653 26.56001539 376 74 C376.67637512 74.28403687 377.35275024 74.56807373 378.04962158 74.86071777 C407.35755126 87.1930407 435.95262196 101.02529654 464 116 C462.64581371 119.02093369 461.13316242 121.11674388 458.79680818 123.45273948 C458.13176449 124.12253398 457.4667208 124.79232848 456.78152427 125.48241979 C456.0474609 126.21151498 455.31339752 126.94061018 454.55708981 127.69179916 C453.77674144 128.47475481 452.99639308 129.25771046 452.1923978 130.06439203 C449.55463171 132.70849589 446.90974311 135.34536007 444.26487732 137.98236084 C442.36190339 139.88692179 440.45932947 141.79187475 438.55723816 143.69731641 C434.40977596 147.8504724 430.25859596 151.99988328 426.10498238 156.14688683 C419.92866893 162.31339829 413.75807284 168.48560704 407.58862904 174.65899046 C397.21108524 185.04281572 386.82881387 195.42190205 376.44378471 205.79824066 C366.15820148 216.07521827 355.87446625 226.35403877 345.59327888 236.63541412 C344.95445562 237.27424503 344.31563236 237.91307594 343.65745082 238.57126536 C341.06448813 241.16426895 338.4715378 243.75728489 335.87860431 246.35031768 C311.54274745 270.68708112 287.20146451 295.01841069 262.85746427 319.34702805 C241.21003477 340.98082907 219.56630594 362.61832524 197.92602539 384.25927734 C196.53621318 385.64912996 195.14640095 387.03898256 193.75658869 388.42883512 C193.06950475 389.11593942 192.38242081 389.80304371 191.67451614 390.51096935 C188.21612126 393.96946501 184.75772128 397.42795557 181.29931545 400.88644028 C180.61708509 401.56868735 179.93485474 402.25093442 179.23195073 402.95385565 C161.16885893 421.01731225 143.10331793 439.07831896 125.03694016 457.13848901 C124.39466498 457.78054391 123.75238981 458.42259881 123.09065175 459.08410993 C120.50769827 461.66617514 117.92474473 464.24824029 115.34177824 466.83029248 C106.34013189 475.82877414 97.33931558 484.82808527 88.33903064 493.82792859 C76.74486033 505.42150292 65.14900417 517.01338681 53.55020123 528.60232654 C47.41004372 534.73735334 41.2712607 540.87374791 35.13442571 547.01209824 C31.04311202 551.10414282 26.94999944 555.19438194 22.85537074 559.28310941 C20.51721597 561.61799404 18.18015194 563.95395235 15.84469991 566.29154083 C13.33777015 568.80051145 10.82784286 571.30644252 8.31706905 573.8115654 C7.58066451 574.55002526 6.84425997 575.28848512 6.08554015 576.04932255 C5.42299997 576.70910297 4.7604598 577.3688834 4.07784265 578.04865718 C3.21586303 578.91019955 3.21586303 578.91019955 2.33646968 579.78914683 C1 581 1 581 0 581 C0 389.27 0 197.54 0 0 Z " fill="#B7D6BE" transform="translate(0,1471)"/>
<path d="M0 0 C0 229.68 0 459.36 0 696 C-4.37014968 692.25415742 -8.46100501 688.66374762 -12.49969387 684.62335396 C-13.00921777 684.11498391 -13.51874166 683.60661386 -14.04370567 683.08283865 C-15.73719253 681.3919823 -17.4271118 679.69760669 -19.11705017 678.00320435 C-20.34794401 676.77274694 -21.57905773 675.54250945 -22.81037146 674.31247222 C-26.18307149 670.94200301 -29.55265424 667.56843247 -32.9217273 664.19433832 C-36.55922572 660.55251528 -40.19961999 656.91358898 -43.83966064 653.27430725 C-50.14250962 646.97198223 -56.44352731 640.6678311 -62.74329948 634.36243057 C-71.85167918 625.24591856 -80.96282394 616.13217412 -90.07464261 607.01909946 C-104.85844099 592.23311328 -119.64000554 577.44489603 -134.42016602 562.65527344 C-148.77641521 548.28984308 -163.13371591 533.92546499 -177.49243164 519.5625 C-178.37773026 518.67693865 -179.26302888 517.79137731 -180.17515474 516.87898077 C-184.61651225 512.43631821 -189.05789044 507.99367632 -193.4992789 503.5510447 C-230.33605876 466.70390072 -267.16921373 429.85313484 -304 393 C-303.54014152 391.58392916 -303.07705438 390.16890661 -302.61265564 388.75431824 C-302.35512984 387.96621356 -302.09760405 387.17810888 -301.83227444 386.36612225 C-300.54745332 382.71342826 -298.89558288 379.27306227 -297.19140625 375.80078125 C-296.82866104 375.05173523 -296.46591583 374.30268921 -296.09217834 373.53094482 C-294.92218426 371.12153161 -293.74312134 368.71672167 -292.5625 366.3125 C-292.15916443 365.4870871 -291.75582886 364.66167419 -291.340271 363.81124878 C-285.3317109 351.52206814 -279.09011023 339.40573848 -272.38134766 327.48193359 C-270.95862682 324.92566283 -269.57446129 322.35162902 -268.19921875 319.76953125 C-260.9283654 306.15108785 -253.04167951 292.95472382 -244.95361328 279.81242371 C-242.9829779 276.60924199 -241.03004843 273.39669016 -239.1015625 270.16796875 C-216.6206992 232.61760927 -190.54654019 196.96628473 -163 163 C-162.3090625 162.14664062 -161.618125 161.29328125 -160.90625 160.4140625 C-156.36251506 154.83038822 -151.74663064 149.31322798 -147.08007812 143.83227539 C-144.22549765 140.47298206 -141.44101856 137.06817534 -138.6875 133.625 C-134.402493 128.35173913 -129.80695987 123.40618061 -125.13549805 118.47705078 C-121.57433356 114.71659972 -118.12692217 110.88032968 -114.72900391 106.97192383 C-101.50167347 91.88619268 -87.01718229 77.90875412 -72.79223633 63.77636719 C-70.94968679 61.94428943 -69.11152864 60.10778318 -67.27807617 58.26660156 C-64.3921418 55.39520356 -61.34649527 52.73919305 -58.28125 50.0625 C-55.76632487 47.78873208 -53.3955138 45.39909453 -51 43 C-48.91474219 41.02102794 -46.8033915 39.07113427 -44.6875 37.125 C-43.82112915 36.32739258 -43.82112915 36.32739258 -42.93725586 35.51367188 C-38.68262285 31.60668442 -34.38373443 27.76192813 -30 24 C-29.26426758 23.36674805 -29.26426758 23.36674805 -28.51367188 22.72070312 C-24.35057771 19.13759138 -20.17698524 15.56690092 -16 12 C-15.07356689 11.20746826 -15.07356689 11.20746826 -14.12841797 10.39892578 C-12.33752527 8.86785661 -10.54416672 7.33973034 -8.75 5.8125 C-8.20126221 5.34295898 -7.65252441 4.87341797 -7.0871582 4.38964844 C-1.91645395 0 -1.91645395 0 0 0 Z " fill="#D9E9DA" transform="translate(5001,1056)"/>
<path d="M0 0 C3.60255977 1.52690026 5.90760713 3.6579786 8.66202927 6.4131403 C9.11744042 6.86594416 9.57285157 7.31874803 10.04206306 7.78527322 C11.57194914 9.30884629 13.09458424 10.8394657 14.61737061 12.37013245 C15.72171941 13.47289345 16.82650573 14.57521646 17.93169236 15.67713779 C20.97139334 18.7104141 24.00480477 21.74991349 27.03724074 24.79045045 C30.30695115 28.06672933 33.58241105 31.33725119 36.85716248 34.60848999 C43.27236109 41.0186426 49.68219866 47.43413051 56.09024969 53.8514275 C63.54605906 61.31760879 71.00708048 68.77857244 78.46832064 76.23932587 C91.77515255 89.54565696 105.07714404 102.85681645 118.37646484 116.1706543 C131.29568802 129.1039724 144.2184156 142.03377554 157.14501953 154.9597168 C157.94149646 155.75615377 158.73797338 156.55259074 159.55858597 157.37316216 C160.3536571 158.16819293 161.14872822 158.9632237 161.96789241 159.78234631 C176.66663232 174.48039729 191.362084 189.18173197 206.05599914 203.88460626 C211.26156024 209.09318974 216.46810318 214.30079056 221.67494965 219.50808907 C228.01381248 225.84763238 234.35079098 232.18905243 240.68538705 238.53285927 C243.92054331 241.77264824 247.15649835 245.01162868 250.39459801 248.24847603 C253.35357108 251.20636018 256.31025163 254.16651523 259.26504651 257.12857305 C260.33941604 258.20476723 261.41464494 259.28010424 262.49077687 260.35453612 C263.94325201 261.80496908 265.3924014 263.25873028 266.8413353 264.71270084 C268.0547068 265.92712898 268.0547068 265.92712898 269.29259086 267.16609102 C271 269 271 269 271 270 C92.8 270 -85.4 270 -269 270 C-267.15494804 266.30989609 -266.21146881 265.06609177 -263.1875 262.5625 C-258.97442147 258.9882276 -255.10781134 255.37018771 -251.625 251.0625 C-249.25499828 248.15589411 -246.57462617 245.8326333 -243.69921875 243.4375 C-240.53475825 240.76043916 -237.70172638 237.91950353 -235.1875 234.625 C-233.34981687 232.41978024 -231.64213656 230.77497932 -229.46875 228.9375 C-224.51491242 224.6468275 -219.92092168 220.0307062 -215.3125 215.375 C-214.48427734 214.54226562 -213.65605469 213.70953125 -212.80273438 212.8515625 C-211.2127045 211.25262133 -209.62362721 209.65273216 -208.03564453 208.05175781 C-205.69697653 205.69457793 -203.34986319 203.34601726 -201 201 C-199.80199741 199.80216926 -198.60408937 198.60424395 -197.40625 197.40625 C-173.25976562 173.25976562 -149.11328125 149.11328125 -124.96679688 124.96679688 C-124.46744629 124.46672119 -123.9680957 123.96664551 -123.45361328 123.45141602 C-122.04909597 122.04902175 -120.63698242 120.65424795 -119.22460938 119.25976562 C-116.97130829 117.06529365 -116.97130829 117.06529365 -115.1875 114.625 C-113.37815656 112.45378787 -111.73431628 110.86247038 -109.59375 109.0625 C-103.88668321 104.11943231 -98.62499558 98.73236606 -93.3125 93.375 C-92.28344047 92.34090959 -91.25414493 91.30705398 -90.22460938 90.2734375 C-88.33227605 88.37302143 -86.4415879 86.471024 -84.55200195 84.56787109 C-78.22959032 78.20614475 -78.22959032 78.20614475 -75.15625 75.19140625 C-72.44618456 72.52608246 -69.90789419 69.88717038 -67.5 66.9375 C-65.07355071 64.08642209 -62.56235628 61.82241282 -59.69921875 59.4375 C-56.53475825 56.76043916 -53.70172638 53.91950353 -51.1875 50.625 C-49.3508717 48.42104603 -47.64438844 46.77608379 -45.47265625 44.93920898 C-40.50312527 40.63262307 -35.88405945 36.00967214 -31.25 31.34765625 C-30.35128174 30.44752304 -29.45256348 29.54738983 -28.52661133 28.61997986 C-26.16413425 26.25288737 -23.80384888 23.88365361 -21.44464111 21.51330566 C-19.02614819 19.08449258 -16.60474054 16.65858897 -14.18359375 14.23242188 C-9.45307046 9.49092631 -4.72542027 4.74658102 0 0 Z " fill="#BBD9C7" transform="translate(1305,3064)"/>
<path d="M0 0 C84.15 0 168.3 0 255 0 C251.27289652 4.3482874 247.70546946 8.4189645 243.68484497 12.43540955 C243.18560859 12.93550036 242.6863722 13.43559116 242.17200744 13.95083624 C240.52083856 15.60363473 238.86615385 17.25286509 237.21142578 18.90209961 C236.01822274 20.09502021 234.82524058 21.28816179 233.63246155 22.48150635 C230.40994777 25.70430587 227.18437019 28.9240228 223.95821619 32.14317775 C220.5811765 35.51394673 217.20698715 38.88756652 213.83248901 42.26087952 C207.44919492 48.64107123 201.06335701 55.01871052 194.67659175 61.39542729 C187.40254216 68.65828174 180.13134742 75.92399147 172.86038613 83.18993747 C157.91008914 98.12979484 142.95622673 113.06607903 128 128 C121.29002087 122.48761981 115.22488824 116.36602913 109.09790039 110.22729492 C107.9049713 109.0357226 106.71182996 107.84436274 105.51849365 106.65319824 C102.29560142 103.43484457 99.07585563 100.21336055 95.85682225 96.99114776 C92.4857551 93.61754202 89.11224115 90.24638443 85.73912048 86.87483215 C80.08266322 81.22019071 74.42831043 75.56345134 68.77514648 69.90551758 C62.23140172 63.35631552 55.68404093 56.81074502 49.134821 50.2670185 C43.51080742 44.64753399 37.88873366 39.02611433 32.26829523 33.40305406 C28.91148249 30.04467943 25.55399084 26.68699104 22.19474983 23.33104515 C19.04308265 20.18225422 15.89384801 17.03105096 12.746521 13.87792206 C11.5879611 12.71803391 10.42853831 11.55900698 9.26821709 10.40088081 C7.69200676 8.82737904 6.11887082 7.25086876 4.54652405 5.67350769 C3.66332017 4.78992679 2.78011629 3.90634588 1.87014866 2.9959898 C0 1 0 1 0 0 Z " fill="#B5D6C2" transform="translate(4027,0)"/>
</svg>
